{"title":"One Direction This Is Us [2013] DVDRip x264 NO1CARES","uid":9298284,"size":1323494134,"categoryP":"video","categoryS":"movies","magnet":"?xt=urn:btih:a2772351eb419f55ea123bf60f530da2db5ec12b&amp;dn=One+Direction+This+Is+Us+%5B2013%5D+DVDRip+x264+NO1CARES&amp;tr=udp%3A%2F%2Ftracker.openbittorrent.com%3A80&amp;tr=udp%3A%2F%2Fopen.demonii.com%3A1337&amp;tr=udp%3A%2F%2Ftracker.coppersurfer.tk%3A6969&amp;tr=udp%3A%2F%2Fexodus.desync.com%3A6969","seeders":3,"leechers":0,"uploader":"juggs99","files":4,"time":1386196028,"description":" &lt;a href=&quot;\nhttp://www.imdb.com/title/tt2515086/&quot; rel=&quot;nofollow&quot; target=&quot;_NEW&quot;&gt;\nhttp://www.imdb.com/title/tt2515086/&lt;/a&gt;\n\nFormat                                   : MPEG-4\nFormat profile                           : Base Media\nCodec ID                                 : isom\nFile size                                : 1.22 GiB\nDuration                                 : 1h 28mn\nOverall bit rate mode                    : Variable\nOverall bit rate                         : 1 972 Kbps\nEncoded date                             : UTC 2013-12-04 20:24:15\nTagged date                              : UTC 2013-12-04 20:24:15\n\nVideo\nID                                       : 1\nFormat                                   : AVC\nFormat/Info                              : Advanced Video Codec\nFormat profile                           : &lt;a class=&quot;__cf_email__&quot; href=&quot;/cdn-cgi/l/email-protection&quot; data-cfemail=&quot;b6fedfd1def6fa829887&quot;&gt;[email&amp;#160;protected]&lt;/a&gt;&lt;script cf-hash='f9e31' type=&quot;text/javascript&quot;&gt;\n/* &lt;![CDATA[ */!function(){try{var t=&quot;currentScript&quot;in document?document.currentScript:function(){for(var t=document.getElementsByTagName(&quot;script&quot;),e=t.length;e--;)if(t[e].getAttribute(&quot;cf-hash&quot;))return t[e]}();if(t&amp;&amp;t.previousSibling){var e,r,n,i,c=t.previousSibling,a=c.getAttribute(&quot;data-cfemail&quot;);if(a){for(e=&quot;&quot;,r=parseInt(a.substr(0,2),16),n=2;a.length-n;n+=2)i=parseInt(a.substr(n,2),16)^r,e+=String.fromCharCode(i);e=document.createTextNode(e),c.parentNode.replaceChild(e,c)}}}catch(u){}}();/* ]]&gt; */&lt;/script&gt;\nFormat settings, CABAC                   : Yes\nFormat settings, ReFrames                : 3 frames\nFormat settings, GOP                     : M=4, N=24\nCodec ID                                 : avc1\nCodec ID/Info                            : Advanced Video Coding\nDuration                                 : 1h 28mn\nBit rate mode                            : Variable\nBit rate                                 : 1 650 Kbps\nMaximum bit rate                         : 40.0 Mbps\nWidth                                    : 720 pixels\nHeight                                   : 400 pixels\nDisplay aspect ratio                     : 16:9\nFrame rate mode                          : Constant\nFrame rate                               : 25.000 fps\nColor space                              : YUV\nChroma subsampling                       : 4:2:0\nBit depth                                : 8 bits\nScan type                                : Progressive\nBits/(Pixel*Frame)                       : 0.229\nStream size                              : 1.02 GiB (84%)\nWriting library                          : x264 core 140 r2377 \n\nAudio\nID                                       : 2\nFormat                                   : AAC\nFormat/Info                              : Advanced Audio Codec\nFormat profile                           : LC\nCodec ID                                 : 40\nDuration                                 : 1h 28mn\nBit rate mode                            : Variable\nBit rate                                 : 320 Kbps\nMaximum bit rate                         : 334 Kbps\nChannel(s)                               : 6 channels\nChannel positions                        : Front: L C R, Side: L R, LFE\nSampling rate                            : 48.0 KHz\nCompression mode                         : Lossy\nStream size                              : 203 MiB (16%)\nEncoded date                             : UTC 2013-12-04 20:14:23\nTagged date                              : UTC 2013-12-04 20:24:19\n &lt;a href=&quot;\nhttp://img819.imageshack.us/img819/7308/5kzp.png&quot; rel=&quot;nofollow&quot; target=&quot;_NEW&quot;&gt;\nhttp://img819.imageshack.us/img819/7308/5kzp.png&lt;/a&gt; &lt;a href=&quot;\nhttp://img34.imageshack.us/img34/3997/hvux.png&quot; rel=&quot;nofollow&quot; target=&quot;_NEW&quot;&gt;\nhttp://img34.imageshack.us/img34/3997/hvux.png&lt;/a&gt; &lt;a href=&quot;\nhttp://img837.imageshack.us/img837/1953/t5f9.png&quot; rel=&quot;nofollow&quot; target=&quot;_NEW&quot;&gt;\nhttp://img837.imageshack.us/img837/1953/t5f9.png&lt;/a&gt;","torrent":{"xt":"urn:btih:a2772351eb419f55ea123bf60f530da2db5ec12b","amp;dn":"One+Direction+This+Is+Us+%5B2013%5D+DVDRip+x264+NO1CARES","amp;tr":["udp%3A%2F%2Ftracker.openbittorrent.com%3A80","udp%3A%2F%2Fopen.demonii.com%3A1337","udp%3A%2F%2Ftracker.coppersurfer.tk%3A6969","udp%3A%2F%2Fexodus.desync.com%3A6969"],"infoHash":"a2772351eb419f55ea123bf60f530da2db5ec12b","infoHashBuffer":{"type":"Buffer","data":[162,119,35,81,235,65,159,85,234,18,59,246,15,83,13,162,219,94,193,43]},"announce":[],"urlList":[]}}